<svg xmlns="http://www.w3.org/2000/svg" viewBox="0 0 100 50.91">
  <path d="M 51.931 0.036 C 51.786 0.053, 51.496 0.085, 51.286 0.106 C 48.353 0.396, 45.051 2.002, 42.615 4.322 L 42.306 4.617 44.368 5.758 C 45.502 6.386, 46.442 6.905, 46.457 6.911 C 46.473 6.917, 46.656 6.804, 46.864 6.660 C 48.433 5.578, 50.015 4.941, 51.681 4.721 C 53.881 4.431, 57.065 5.140, 59.826 6.535 C 66.732 10.024, 71.209 17.732, 71.020 25.808 C 70.931 29.598, 69.871 33.134, 67.844 36.394 C 65.474 40.206, 61.771 43.295, 57.760 44.804 C 57.538 44.887, 57.339 44.973, 57.318 44.994 C 57.297 45.015, 57.252 45.166, 57.219 45.330 C 56.710 47.830, 54.647 49.935, 52.019 50.637 L 51.633 50.740 52.113 50.720 C 55.088 50.598, 58.704 49.588, 61.710 48.038 C 68.195 44.694, 72.839 38.847, 74.667 31.724 C 75.314 29.202, 75.596 26.387, 75.456 23.841 C 75.000 15.526, 70.925 8.295, 64.185 3.842 C 61.142 1.831, 57.409 0.443, 54.089 0.087 C 53.477 0.022, 52.281 -0.007, 51.931 0.036 M 49.421 8.993 C 47.334 9.172, 45.358 9.760, 43.200 10.844 L 42.842 11.023 42.651 11.349 C 40.549 14.927, 39.486 18.704, 39.308 23.225 C 39.297 23.514, 39.296 23.742, 39.306 23.732 C 39.316 23.722, 39.365 23.478, 39.413 23.190 C 40.259 18.197, 44.165 14.396, 49.228 13.639 C 49.736 13.563, 51.141 13.533, 51.710 13.586 C 54.356 13.834, 56.801 15.026, 58.745 17.017 C 60.526 18.839, 61.595 21.091, 61.926 23.718 C 62.012 24.402, 62.012 25.878, 61.926 26.563 C 61.263 31.826, 57.723 35.812, 52.897 36.727 C 52.445 36.813, 51.716 36.902, 51.440 36.905 C 51.262 36.908, 51.280 36.915, 51.664 36.994 C 53.586 37.393, 55.380 38.605, 56.373 40.177 C 56.431 40.269, 56.496 40.344, 56.519 40.344 C 56.611 40.344, 57.390 40.007, 57.851 39.767 C 63.914 36.613, 67.286 30.001, 66.396 23.011 C 65.428 15.401, 59.435 9.627, 51.843 8.990 C 51.348 8.948, 49.923 8.950, 49.421 8.993" fill="#F26A21" fill-rule="evenodd"/>
  <path d="M 48.876 0.037 C 47.292 0.096, 46.046 0.284, 44.313 0.724 C 35.968 2.840, 29.074 9.433, 26.561 17.701 C 26.066 19.330, 25.731 21.038, 25.581 22.705 C 25.533 23.235, 25.527 24.936, 25.527 37.074 L 25.527 50.843 38.158 50.842 C 46.390 50.842, 50.900 50.830, 51.106 50.807 C 52.075 50.699, 53.333 50.231, 54.196 49.659 C 55.802 48.595, 56.835 47.071, 57.253 45.154 C 57.367 44.629, 57.410 43.604, 57.341 43.023 C 57.161 41.492, 56.600 40.263, 55.582 39.174 C 54.555 38.075, 52.920 37.192, 51.510 36.976 C 51.369 36.955, 49.000 36.935, 45.316 36.923 C 42.036 36.913, 39.346 36.900, 39.340 36.894 C 39.306 36.860, 39.325 22.437, 39.360 21.998 C 39.594 19.077, 40.263 16.317, 41.307 13.964 C 41.746 12.974, 42.731 11.091, 42.846 11.020 C 42.874 11.002, 42.877 10.981, 42.854 10.959 C 42.810 10.916, 39.031 8.819, 38.973 8.805 C 38.862 8.780, 37.627 11.126, 37.102 12.360 C 35.945 15.077, 35.195 18.012, 34.833 21.243 C 34.628 23.073, 34.638 22.481, 34.638 32.426 L 34.638 41.555 42.960 41.573 L 51.282 41.591 51.509 41.713 C 51.975 41.965, 52.481 42.595, 52.695 43.192 C 52.933 43.854, 52.716 44.773, 52.166 45.438 C 51.941 45.709, 51.715 45.883, 51.382 46.041 L 51.141 46.155 40.634 46.164 L 30.126 46.173 30.118 38.861 C 30.098 22.786, 30.087 23.724, 30.322 22.086 C 31.070 16.865, 33.827 12.063, 37.889 8.905 C 38.448 8.470, 38.896 8.154, 39.325 7.892 C 39.684 7.672, 39.698 7.658, 39.996 7.242 C 42.332 3.985, 45.706 1.505, 49.138 0.520 C 49.971 0.281, 50.494 0.186, 51.791 0.039 C 52.124 0.001, 49.866 -0.000, 48.876 0.037" fill="#1F2B5B" fill-rule="evenodd"/>
</svg>